<svg xmlns="http://www.w3.org/2000/svg" width="{{ .width }}" height="{{ .height }}" viewBox="0 0 24 24"><path d="M0 0h24v24H0z" fill="none" /><path d="m20,15.31l3.31,-3.31l-3.31,-3.31l0,-4.69l-4.69,0l-3.31,-3.31l-3.31,3.31l-4.69,0l0,4.69l-3.31,3.31l3.31,3.31l0,4.69l4.69,0l3.31,3.31l3.31,-3.31l4.69,0l0,-4.69zm-8,2.69c-3.31,0 -6,-2.69 -6,-6s2.69,-6 6,-6s6,2.69 6,6s-2.69,6 -6,6z" fill="currentColor" id="svg_2"/><text fill="currentColor" font-family="Cursive" font-size="26" font-weight="bold" id="svg_3" text-anchor="middle" transform="matrix(0.558186 0 0 0.38359 9.34332 1.03536)" x="4.76" xml:space="preserve" y="37">A</text></svg>
